<svg xmlns="http://www.w3.org/2000/svg" xmlns:xlink="http://www.w3.org/1999/xlink" width="400" zoomAndPan="magnify" viewBox="0 0 300 112.499997" height="150" preserveAspectRatio="xMidYMid meet" version="1.0"><defs><g/><clipPath id="7ff34b6030"><path d="M 3.304688 56.339844 L 20.265625 56.339844 L 20.265625 73.300781 L 3.304688 73.300781 Z M 3.304688 56.339844 " clip-rule="nonzero"/></clipPath><clipPath id="7fe099553b"><path d="M 5.25 38.945312 L 20.175781 38.945312 L 20.175781 53.871094 L 5.25 53.871094 Z M 5.25 38.945312 " clip-rule="nonzero"/></clipPath></defs><g fill="#36cdca" fill-opacity="1"><g transform="translate(22.421519, 70.692152)"><g><path d="M 26.203125 -30.578125 L 26.546875 -0.078125 L 18.46875 -0.265625 L 17.84375 -17.65625 L 13.578125 -11.265625 L 9.578125 -17.421875 L 8.96875 -0.390625 L 0.765625 -0.078125 L 1.1875 -30.859375 L 9.3125 -30.734375 L 13.578125 -23.8125 L 17.703125 -30.703125 Z M 26.203125 -30.578125 "/></g></g></g><g fill="#36cdca" fill-opacity="1"><g transform="translate(49.733578, 70.692152)"><g><path d="M 20.65625 -30.78125 L 22.46875 -28.8125 L 22.203125 -2.8125 L 20.765625 -0.078125 L 3.5 0.03125 L 0.96875 -1.46875 L 0.765625 -28.734375 L 2 -30.65625 Z M 8.84375 -24.3125 L 9.078125 -6.546875 L 14.265625 -6.1875 L 14.34375 -23.84375 Z M 8.84375 -24.3125 "/></g></g></g><g fill="#36cdca" fill-opacity="1"><g transform="translate(72.968056, 70.692152)"><g><path d="M 20.96875 -8.578125 L 18.96875 -8.34375 L 21.65625 -2.84375 L 21 -1.53125 L 15.078125 0 L 10.8125 -7.8125 L 8.921875 -7.734375 L 8.578125 -0.765625 L 0.765625 -0.109375 L 0.765625 -30.859375 L 20.921875 -29.625 L 22.421875 -28.125 L 22.46875 -11.15625 Z M 14.34375 -15.046875 L 14.390625 -23.65625 L 9.3125 -24.15625 L 9.109375 -14.65625 Z M 14.34375 -15.046875 "/></g></g></g><g fill="#36cdca" fill-opacity="1"><g transform="translate(96.202533, 70.692152)"><g><path d="M 22.421875 -28 L 22.46875 -9.890625 L 20.84375 -8 L 8.921875 -7.609375 L 8.578125 -0.53125 L 0.765625 0.109375 L 0.765625 -30.65625 L 20.921875 -29.5 Z M 14.390625 -23.421875 L 9.3125 -23.921875 L 9.109375 -14.546875 L 14.34375 -14.921875 Z M 14.390625 -23.421875 "/></g></g></g><g fill="#36cdca" fill-opacity="1"><g transform="translate(119.43701, 70.692152)"><g><path d="M 1 -30.359375 L 9.34375 -30.625 L 8.3125 -0.765625 L 0.765625 0.03125 Z M 1 -30.359375 "/></g></g></g><g fill="#36cdca" fill-opacity="1"><g transform="translate(129.554017, 70.692152)"><g><path d="M 20.65625 -30.78125 L 22.46875 -28.8125 L 22.203125 -2.8125 L 20.765625 -0.078125 L 3.5 0.03125 L 0.96875 -1.46875 L 0.765625 -28.734375 L 2 -30.65625 Z M 8.84375 -24.3125 L 9.078125 -6.546875 L 14.265625 -6.1875 L 14.34375 -23.84375 Z M 8.84375 -24.3125 "/></g></g></g><g fill="#36cdca" fill-opacity="1"><g transform="translate(152.788494, 70.692152)"><g><path d="M 15.46875 -30.234375 L 24.078125 -30.625 L 22.96875 -0.3125 L 16.078125 -0.03125 L 9 -15.046875 L 8.46875 -0.765625 L 0.765625 0 L 1 -30.578125 L 9.3125 -30.578125 L 15.390625 -17.734375 Z M 15.46875 -30.234375 "/></g></g></g><g fill="#36cdca" fill-opacity="1"><g transform="translate(177.638622, 70.692152)"><g/></g></g><g fill="#f6bc47" fill-opacity="1"><g transform="translate(189.188282, 70.692152)"><g><path d="M 26.203125 -30.578125 L 26.546875 -0.078125 L 18.46875 -0.265625 L 17.84375 -17.65625 L 13.578125 -11.265625 L 9.578125 -17.421875 L 8.96875 -0.390625 L 0.765625 -0.078125 L 1.1875 -30.859375 L 9.3125 -30.734375 L 13.578125 -23.8125 L 17.703125 -30.703125 Z M 26.203125 -30.578125 "/></g></g></g><g fill="#f6bc47" fill-opacity="1"><g transform="translate(216.500342, 70.692152)"><g><path d="M 22.578125 -27.28125 L 23.15625 -0.078125 L 15.15625 0.078125 L 14.921875 -9.5 L 8.8125 -9.109375 L 8.1875 -0.109375 L 0.765625 0.03125 L 1.96875 -28.203125 L 3.46875 -30 L 20.234375 -30.734375 Z M 14.890625 -15.34375 L 14.6875 -23 L 9.625 -22.578125 L 9.234375 -15.734375 Z M 14.890625 -15.34375 "/></g></g></g><g fill="#f6bc47" fill-opacity="1"><g transform="translate(240.427239, 70.692152)"><g><path d="M 15.46875 -30.234375 L 24.078125 -30.625 L 22.96875 -0.3125 L 16.078125 -0.03125 L 9 -15.046875 L 8.46875 -0.765625 L 0.765625 0 L 1 -30.578125 L 9.3125 -30.578125 L 15.390625 -17.734375 Z M 15.46875 -30.234375 "/></g></g></g><g fill="#f6bc47" fill-opacity="1"><g transform="translate(265.277367, 70.692152)"><g><path d="M 1 -30.359375 L 9.34375 -30.625 L 8.3125 -0.765625 L 0.765625 0.03125 Z M 1 -30.359375 "/></g></g></g><g fill="#f6bc47" fill-opacity="1"><g transform="translate(275.394373, 70.692152)"><g><path d="M 22.578125 -27.28125 L 23.15625 -0.078125 L 15.15625 0.078125 L 14.921875 -9.5 L 8.8125 -9.109375 L 8.1875 -0.109375 L 0.765625 0.03125 L 1.96875 -28.203125 L 3.46875 -30 L 20.234375 -30.734375 Z M 14.890625 -15.34375 L 14.6875 -23 L 9.625 -22.578125 L 9.234375 -15.734375 Z M 14.890625 -15.34375 "/></g></g></g><g clip-path="url(#7ff34b6030)"><path fill="#f6bc47" d="M 3.304688 64.820312 C 3.304688 60.140625 7.105469 56.339844 11.785156 56.339844 C 16.46875 56.339844 20.265625 60.140625 20.265625 64.820312 C 20.265625 69.5 16.46875 73.300781 11.785156 73.300781 C 7.105469 73.300781 3.304688 69.5 3.304688 64.820312 Z M 6.675781 64.820312 C 6.675781 62 8.964844 59.710938 11.785156 59.710938 C 14.605469 59.710938 16.894531 62 16.894531 64.820312 C 16.894531 67.640625 14.605469 69.929688 11.785156 69.929688 C 8.964844 69.929688 6.675781 67.640625 6.675781 64.820312 Z M 6.675781 64.820312 " fill-opacity="1" fill-rule="evenodd"/></g><g clip-path="url(#7fe099553b)"><path fill="#36cdca" d="M 12.273438 48.933594 L 7.570312 53.640625 C 7.257812 53.949219 6.753906 53.949219 6.445312 53.640625 L 5.484375 52.675781 C 5.171875 52.367188 5.171875 51.863281 5.484375 51.550781 L 10.1875 46.847656 C 10.429688 46.605469 10.429688 46.210938 10.1875 45.96875 L 5.484375 41.265625 C 5.171875 40.953125 5.171875 40.449219 5.484375 40.140625 L 6.445312 39.179688 C 6.753906 38.867188 7.257812 38.867188 7.570312 39.179688 L 12.273438 43.882812 C 12.515625 44.125 12.910156 44.125 13.152344 43.882812 L 17.855469 39.179688 C 18.167969 38.867188 18.671875 38.867188 18.980469 39.179688 L 19.945312 40.140625 C 20.253906 40.449219 20.253906 40.953125 19.945312 41.265625 L 15.238281 45.96875 C 14.996094 46.210938 14.996094 46.605469 15.238281 46.847656 L 19.945312 51.550781 C 20.253906 51.863281 20.253906 52.367188 19.945312 52.675781 L 18.980469 53.640625 C 18.671875 53.949219 18.167969 53.949219 17.855469 53.640625 L 13.152344 48.933594 C 12.910156 48.691406 12.515625 48.691406 12.273438 48.933594 Z M 12.273438 48.933594 " fill-opacity="1" fill-rule="evenodd"/></g></svg>